<svg xmlns="http://www.w3.org/2000/svg" width="512" height="512" viewBox="0 0 512 512">
  <rect width="512" height="512" rx="102" fill="#1A5C35"/>
  <g transform="translate(131, 30) scale(2.5)">
    <path d="M9 34 L27 17 L49 30 L72 17 L91 34 L50 55 Z" fill="white" opacity="0.9"/>
    <path d="M7 37 L48 58 L48 93 L7 72 Z" fill="#C5975B"/>
    <path d="M52 58 L93 37 L93 47 L82 51 L82 57 L93 61 L93 72 L52 93 Z" fill="white" opacity="0.2"/>
  </g>
  <text x="122" y="340" font-family="system-ui,-apple-system,sans-serif" font-size="120" font-weight="900" fill="#C5975B">ma</text>
  <text x="280" y="340" font-family="system-ui,-apple-system,sans-serif" font-size="120" font-weight="900" fill="white">BIZ</text>
  <path d="M120 360 Q190 344 256 356 Q322 368 392 352" stroke="white" stroke-width="5" fill="none" opacity="0.3" stroke-linecap="round"/>
  <text x="256" y="430" text-anchor="middle" font-family="system-ui,-apple-system,sans-serif" font-size="36" font-weight="600" fill="white" opacity="0.5">TEU NEGÓCIO</text>
</svg>
