<svg xmlns="http://www.w3.org/2000/svg" width="512" height="512" viewBox="0 0 512 512">
  <rect width="512" height="512" rx="102" fill="#1A5C35"/>
  <!-- Left face - gold -->
  <path d="M86 200 L256 116 L256 416 L86 332Z" fill="#C5975B"/>
  <path d="M86 200 L256 116 L256 416 L86 332Z" fill="black" opacity="0.05"/>
  <!-- Right face - dark green -->
  <path d="M256 116 L426 200 L426 332 L256 416Z" fill="#14472A"/>
  <!-- Top chevrons - green -->
  <path d="M86 200 L171 158 L256 200 L171 242Z" fill="#1A5C35"/>
  <path d="M256 200 L341 158 L426 200 L341 242Z" fill="#1A5C35" opacity="0.85"/>
  <path d="M171 242 L256 200 L341 242 L256 284Z" fill="#1A5C35" opacity="0.7"/>
  <!-- Side ridges -->
  <path d="M86 200 L171 158 L171 242 L86 284Z" fill="#C5975B" opacity="0.8"/>
  <path d="M426 200 L341 158 L341 242 L426 284Z" fill="#14472A" opacity="0.8"/>
</svg>
