<svg xmlns="http://www.w3.org/2000/svg" width="192" height="192" viewBox="0 0 192 192">
  <rect width="192" height="192" rx="38" fill="#1A5C35"/>
  <!-- Left face - gold -->
  <path d="M32 76 L96 44 L96 156 L32 124Z" fill="#C5975B"/>
  <path d="M32 76 L96 44 L96 156 L32 124Z" fill="black" opacity="0.05"/>
  <!-- Right face - dark green -->
  <path d="M96 44 L160 76 L160 124 L96 156Z" fill="#14472A"/>
  <!-- Top chevrons - green -->
  <path d="M32 76 L64 60 L96 76 L64 92Z" fill="#1A5C35"/>
  <path d="M96 76 L128 60 L160 76 L128 92Z" fill="#1A5C35" opacity="0.85"/>
  <path d="M64 92 L96 76 L128 92 L96 108Z" fill="#1A5C35" opacity="0.7"/>
  <!-- Side ridges -->
  <path d="M32 76 L64 60 L64 92 L32 108Z" fill="#C5975B" opacity="0.8"/>
  <path d="M160 76 L128 60 L128 92 L160 108Z" fill="#14472A" opacity="0.8"/>
</svg>
